<svg xmlns="http://www.w3.org/2000/svg"  viewBox="0 0 48 48" width="48px" height="48px"><path fill="#FFB74D" d="M44,41H4V24.2c0-2.4,1.3-4.6,3.4-5.7C10.9,16.6,17,14,24,14s13.1,2.6,16.6,4.5c2.1,1.1,3.4,3.3,3.4,5.7V41z"/><path fill="#F44336" d="M20,13V8.4c5.2-1.5,5.5,3.1,10,1C26.3,14.5,22.8,9.9,20,13z"/><path fill="#A0F" d="M35,15.1l0-4.7c4.1-0.4,4.4,4.4,8,3.3C40,18,37.3,12.6,35,15.1z"/><path fill="#009688" d="M6,17v-4.6c4.1-2.7,4.4,1.9,8-1.2C11,17.1,8.3,13.3,6,17z"/><path fill="#CF8821" d="M29.9 30.2c-.4 0-.9-.1-1.3-.1-1.4-.1-2.6 1-2.6 2.4v5h6v-5C32 31.3 31.1 30.4 29.9 30.2zM36.3 31.1l-.3 0c-1.1-.1-2 .7-2 1.8v4.6h4V33C38 32.1 37.3 31.3 36.3 31.1zM41 31.8l-.1 0c-.5-.1-.9.3-.9.8v4.9h2v-4.6C42 32.3 41.6 31.8 41 31.8zM29.4 18.7c-.2 0-.5-.1-.7-.1C27.3 18.4 26 19.5 26 21l0 4.5c2.3.2 6 .8 6 .8v-4.6C32 20.2 30.9 19 29.4 18.7zM36.2 20.7c-.2-.1-.4-.1-.6-.2-.8-.3-1.6.3-1.6 1.2v5.3c2.1.4 4 .9 4 .9v-4.6C38 22.1 37.3 21 36.2 20.7zM41.1 22.6l-.1 0c-.4-.2-.9.1-.9.6v5.2l2 .5V24C42 23.4 41.6 22.8 41.1 22.6zM18.1 30.2c.4 0 .9-.1 1.3-.1 1.4-.1 2.6 1 2.6 2.4v5h-6v-5C16 31.3 16.9 30.4 18.1 30.2zM11.7 31.1l.3 0c1.1-.1 2 .7 2 1.8v4.6h-4V33C10 32.1 10.7 31.3 11.7 31.1zM7 31.8l.1 0C7.6 31.7 8 32.1 8 32.5v4.9H6v-4.6C6 32.3 6.4 31.8 7 31.8zM18.6 18.7c.2 0 .5-.1.7-.1 1.4-.2 2.7.9 2.7 2.3l0 4.5c-2.3.2-6 .8-6 .8v-4.6C16 20.2 17.1 19 18.6 18.7zM11.8 20.7c.2-.1.4-.1.6-.2.8-.3 1.6.3 1.6 1.2v5.3c-2.1.4-4 .9-4 .9v-4.6C10 22.1 10.7 21 11.8 20.7zM6.9 22.6l.1 0C7.5 22.3 8 22.6 8 23.1v5.2l-2 .5V24C6 23.4 6.4 22.8 6.9 22.6z"/></svg>